<?xml version="1.0" encoding="UTF-8" standalone="no"?>
<!-- Created with Inkscape (http://www.inkscape.org/) -->

<svg
   xmlns:dc="http://purl.org/dc/elements/1.1/"
   xmlns:cc="http://creativecommons.org/ns#"
   xmlns:rdf="http://www.w3.org/1999/02/22-rdf-syntax-ns#"
   xmlns:svg="http://www.w3.org/2000/svg"
   xmlns="http://www.w3.org/2000/svg"
   xmlns:sodipodi="http://sodipodi.sourceforge.net/DTD/sodipodi-0.dtd"
   xmlns:inkscape="http://www.inkscape.org/namespaces/inkscape"
   version="1.1"
   id="svg2"
   width="76.20829"
   height="70.53569"
   viewBox="0 0 76.208287 70.53569"
   sodipodi:docname="lipstick.svg"
   inkscape:version="0.92.5 (2060ec1f9f, 2020-04-08)">
  <metadata
     id="metadata8">
    <rdf:RDF>
      <cc:Work
         rdf:about="">
        <dc:format>image/svg+xml</dc:format>
        <dc:type
           rdf:resource="http://purl.org/dc/dcmitype/StillImage" />
        <dc:title></dc:title>
      </cc:Work>
    </rdf:RDF>
  </metadata>
  <defs
     id="defs6" />
  <sodipodi:namedview
     pagecolor="#ffffff"
     bordercolor="#666666"
     borderopacity="1"
     objecttolerance="10"
     gridtolerance="10"
     guidetolerance="10"
     inkscape:pageopacity="0"
     inkscape:pageshadow="2"
     inkscape:window-width="1848"
     inkscape:window-height="1016"
     id="namedview4"
     showgrid="false"
     fit-margin-top="0"
     fit-margin-left="0"
     fit-margin-right="0"
     fit-margin-bottom="0"
     inkscape:zoom="8.8764472"
     inkscape:cx="35.844142"
     inkscape:cy="28.133967"
     inkscape:window-x="72"
     inkscape:window-y="27"
     inkscape:window-maximized="1"
     inkscape:current-layer="svg2" />
  <path
     style="fill:#feb4b4;fill-opacity:1;stroke-width:0.27084744;stroke-miterlimit:4;stroke-dasharray:none"
     d="m 38.486278,69.051848 c -7.30289,-1.664737 -11.361179,-4.010059 -16.106522,-7.841187 -2.092832,-1.689635 -4.74687,-4.356362 -5.136577,-5.161389 -0.180636,-0.373145 -0.432677,-0.718447 -0.560091,-0.767341 -0.127414,-0.04889 -0.231662,-0.232014 -0.231662,-0.406936 0,-0.174921 -0.151627,-0.399187 -0.336948,-0.498369 -0.729373,-0.390346 -3.279388,-6.548595 -4.632152,-11.172968 -1.30196,-4.450702 -1.428321,-5.880293 -1.102262,-10.73028 0.207083,-3.080265 0.381005,-4.427988 1.114155,-5.738982 0.77452,-1.384972 2.421775,-3.276667 3.485633,-4.279236 0.489838,-0.461618 0.637135,-0.798874 0.637135,-0.921571 0,-0.461084 -0.02505,-0.290141 -0.502877,-0.49105 -0.771919,-0.324568 -0.771021,-0.366166 -2.987159,2.488909 -0.357089,0.460043 -0.914831,1.427894 -1.06731,1.427894 -0.425514,0 -2.0692035,-1.07563 -3.3914685,-2.331651 C 6.6870385,21.695709 6.0961487,21.011037 5.5145307,19.815453 4.4798217,17.688486 3.9828643,15.323532 3.8718633,12.565484 3.7671093,9.9626372 4.4368306,9.6962596 5.6104266,10.221394 c 0.978235,0.437717 2.2161274,1.684654 4.2814614,3.817248 1.406281,1.452078 1.926646,1.891094 2.238474,1.888526 0.524509,-0.0043 0.05637,-0.136807 0.05637,-0.675213 0,-1.060251 -2.9217741,-4.348542 -5.5010081,-5.9335382 -0.876054,-0.538355 -2.2406067,-1.6169564 -2.2406067,-1.7084284 0,-0.246497 3.3098158,0.2542486 5.2874498,0.6632136 3.501839,0.72417 7.758573,2.449125 10.515253,4.261092 1.613775,1.060735 1.671883,1.142573 1.326117,1.867651 -0.309016,0.648014 -0.229218,0.897053 0.449906,1.404092 0.388971,0.290409 0.41823,0.0077 1.421578,-0.334414 0.563438,-0.192108 1.636408,-0.705632 2.556492,-1.141166 3.599182,-1.703719 7.397373,-2.772217 11.850993,-3.235087 2.44092,-0.253687 8.21154,-0.06592 12.06511,0.238982 2.65465,0.210039 3.334185,0.259762 3.640355,0.120264 0.78438,-0.357387 -0.1797,-0.903106 -1.42164,-1.430289 -0.41623,-0.1766809 -0.75678,-0.3627059 -0.75678,-0.4133869 0,-0.225563 2.155584,-2.3032276 3.246944,-3.1355066 2.58029,-1.9677579 4.077821,-2.551266 7.775211,-3.672361 3.30278,-1.001445 5.01446,-0.9351334 6.27961,-0.5835054 0.71049,0.19747 3.03854,2.03165 3.64992,2.875639 0.92884,1.282237 2.114014,5.5975409 1.678024,6.0335339 -0.19529,0.195283 -0.809008,-0.162403 -1.998928,-1.602899 -1.46405,-1.77236 -5.824746,-3.3553869 -6.009366,-2.075209 -0.0641,0.444434 0.3333,0.787791 1.80408,1.558744 2.28879,1.199738 2.60142,1.665839 2.31595,3.45283 -0.31787,1.989799 -1.545859,5.361097 -2.283189,6.027025 -0.33153,0.299425 -0.3629,0.300591 -0.86158,0.03204 -0.28464,-0.153286 -1.19515,-0.820083 -2.02336,-1.48177 -1.74574,-1.394725 -2.222821,-2.125761 -2.652391,-1.989419 -0.45102,0.143147 -0.38758,0.690106 0.1847,1.592504 0.79092,1.247146 4.358,4.769678 6.10447,6.028223 2.16397,1.559409 2.81576,2.575122 3.5954,5.602822 0.76212,2.959623 0.84408,4.068014 0.75215,10.171593 -0.0981,6.512489 -0.16165,6.992059 -1.42928,10.782907 -1.54447,4.618709 -3.539966,8.488777 -6.293376,11.610838 -0.46368,0.525763 -0.9204,1.122311 -1.01493,1.325663 -0.19475,0.418944 -2.17625,1.959143 -3.48053,2.705374 -2.26491,1.295849 -5.54695,2.520442 -9.69434,3.286986 -6.57543,1.215307 -8.777262,1.46924 -12.285382,0.669544 z m 15.716895,-34.184774 0.804786,-1.390149 c 1.45724,-1.397302 2.09875,-2.223974 2.09875,-4.048028 0,-3.3873 -2.386283,-7.671954 -4.826323,-8.743323 -1.16952,-0.513508 -3.096471,-1.144913 -4.629181,-1.05395 -2.45596,0.145759 -4.03841,1.028875 -5.31451,2.965868 l -1.127072,1.647394 -1.247043,-0.788982 c -0.59891,-0.575457 -1.085597,-1.410725 -2.079047,-1.904276 -1.50134,-0.745878 -1.178047,-0.721216 -3.018287,-0.772274 -2.27298,-0.06307 -3.731141,-0.142835 -5.356848,0.657413 -1.34197,0.660581 -3.118888,2.300578 -3.607397,3.329427 -0.409711,0.862896 -0.482079,2.580139 -0.170973,4.057107 0.619474,2.940938 2.384447,5.194859 5.112707,6.529068 0.78864,0.385674 1.46074,0.721625 1.49355,0.746559 10.06728,-3.240254 21.721348,-0.21117 21.866888,-1.231854 z"
     id="path848"
     inkscape:connector-curvature="0"
     sodipodi:nodetypes="csscscsssssccsssscscssscssscsssccscscccccssscccccccccsssccccsccsccccscsccc" />
  <path
     style="fill:#e26d6d;fill-opacity:1;stroke-width:0.1463685;stroke-miterlimit:4;stroke-dasharray:none"
     d="m 40.239493,54.346978 c -0.740626,-0.115937 -1.017724,-0.217619 -2.02739,-0.743955 -4.248126,-2.214522 -6.136658,-4.803613 -6.75693,-9.263469 -0.437078,-3.142638 -0.151861,-4.734417 1.044165,-5.827523 1.100797,-1.006065 4.256245,-2.15803 7.202724,-2.629511 3.388409,-0.542197 8.185665,-0.608328 12.080222,-0.166528 2.364063,0.268181 3.438976,0.800527 4.317014,2.137977 1.301465,1.982447 0.940484,5.328101 -1.013579,9.393869 -1.261182,2.624108 -2.708137,4.170665 -5.184738,5.541593 -1.890837,1.046682 -2.74842,1.327878 -4.47945,1.468782 -1.575358,0.128233 -4.599046,0.180026 -5.182038,0.08877 z"
     id="path854"
     inkscape:connector-curvature="0"
     sodipodi:nodetypes="ccscsscscscc" />
  <ellipse
     style="fill:#de3632;fill-opacity:1;stroke-width:1.9602282;stroke-miterlimit:4;stroke-dasharray:none"
     id="path823"
     ry="4.5888591"
     rx="8.5635767"
     cy="66.412941"
     cx="36.942654"
     transform="matrix(0.98396018,-0.17838822,0.16182194,0.98681997,0,0)" />
  <path
     style="fill:#000000;stroke-width:0.31999999"
     d="m 39.993191,70.412884 c -0.44,-0.0901 -1.88,-0.45042 -3.2,-0.80073 -1.32,-0.35031 -3.192,-0.84616 -4.16,-1.10191 C 29.193063,67.601374 23.52481,64.389679 19.976408,61.338763 17.001377,58.780834 14.457317,55.272681 12.49085,51.016495 10.970147,47.725113 9.0367579,41.350297 8.6731059,38.428537 c -0.389371,-3.128396 -0.11702,-8.60647 0.528903,-10.638354 l 0.543147,-1.708581 -0.955983,-0.688317 c -4.55449,-3.279283 -6.37609,-7.010678 -6.388801,-13.086924 L 2.3931719,8.8739564 1.3513242,8.3125966 c -0.99195201,-0.534475 -1.62847101,-1.530178 -1.23178001,-1.926869 0.229545,-0.229545 8.37847171,-0.118427 9.47362771,0.129182 1.1525721,0.260591 4.8479481,1.38371 5.6000001,1.701984 3.299135,1.3962158 4.688001,2.1381854 6.584673,3.5177074 1.213039,0.88229 2.347353,1.604164 2.520693,1.604164 0.173341,0 0.787546,-0.262206 1.3649,-0.582681 0.577372,-0.320475 2.273753,-0.960048 3.769753,-1.421274 C 34.352705,9.8180954 37.46161,9.4317884 44.50034,9.4625934 l 5.04935,0.0221 0.679242,-1.0990338 c 0.88191,-1.42696 3.298765,-3.570092 5.538848,-4.911541 2.826729,-1.692754 10.588173,-3.77357002 12.824518,-3.43820902 1.763475,0.264449 4.74264,2.71848902 6.050739,4.98419802 1.567949,2.715784 2.030333,6.0603374 1.055831,7.6371154 -0.121591,0.196734 -0.886259,0.320097 -1.721603,0.277743 l -1.502855,-0.0762 -0.661437,1.92 c -0.363792,1.056 -1.049072,2.610915 -1.522851,3.455367 -0.994381,1.772369 -0.891488,2.956807 0.304183,3.501591 0.417388,0.190174 0.758886,0.481934 0.758886,0.648357 0,0.166422 0.415293,0.827307 0.922874,1.468635 2.367673,2.991553 3.6043,12.659133 2.570265,20.093571 -0.625264,4.495479 -2.996697,10.711619 -5.613081,14.713331 -4.592832,7.024649 -7.700064,9.023626 -16.920058,10.885196 -3.701638,0.74738 -10.552096,1.23007 -12.32,0.86807 z m 5.486096,-1.72859 c 3.780893,-0.38159 10.284378,-1.71578 11.473904,-2.35386 0.44,-0.236023 1.376,-0.613207 2.08,-0.838186 1.238179,-0.395689 4.96,-2.993097 4.96,-3.461517 0,-0.126848 0.47481,-0.730428 1.05513,-1.341299 1.330323,-1.400345 3.420268,-4.5116 4.292857,-6.390668 1.41984,-3.057546 1.694115,-3.769011 2.528919,-6.56 0.770348,-2.575494 0.876048,-3.522841 0.999708,-8.96 0.120061,-5.27902 0.05068,-6.496153 -0.526643,-9.238887 -0.830137,-3.943779 -1.653427,-5.450815 -3.709971,-6.791103 -0.88,-0.573513 -1.888,-1.339533 -2.24,-1.702268 -0.352,-0.362734 -1.550413,-1.59812 -2.663142,-2.745302 -1.905568,-1.964572 -2.352544,-2.971062 -1.4525,-3.270708 0.2004,-0.06672 1.30577,0.67735 2.456381,1.653483 1.150608,0.976132 2.315722,1.774786 2.589136,1.774786 0.899021,0 2.750125,-4.643637 2.750125,-6.898898 0,-1.172509 -0.412493,-1.5872166 -2.686669,-2.7011006 -0.898333,-0.4399998 -1.633331,-1.0159998 -1.633331,-1.2799998 0,-0.793022 1.891146,-0.761043 3.57727,0.06049 2.295037,1.1182168 2.452816,1.2327598 3.14273,2.2815558 0.352,0.5351036 0.842362,1.0385036 1.089693,1.1186656 1.032099,0.334512 -0.295911,-4.8181934 -1.634192,-6.3407114 -0.232055,-0.264 -1.068474,-0.984 -1.858711,-1.6 -1.237596,-0.964725 -1.656752,-1.112964 -3.02336,-1.069249 -0.872614,0.02791 -2.096614,0.199305 -2.72,0.38087 -3.969465,1.156133 -4.795635,1.430127 -6.0571,2.008802 -2.416916,1.108719 -6.376756,4.2673628 -6.424823,5.1248858 -0.0063,0.11292 0.344336,0.29462 0.779258,0.403778 0.434918,0.1091576 0.945129,0.4869046 1.133798,0.8394386 0.471312,0.880654 -0.153629,1.076768 -2.653827,0.832802 -7.858842,-0.766854 -13.549437,-0.570956 -18.790736,0.646869 -2.09008,0.485633 -5.284886,1.61431 -5.964835,2.107286 -0.200659,0.145481 -1.235331,0.605657 -2.299274,1.022613 -1.88997,0.740673 -1.946966,0.744259 -2.479329,0.156004 -0.437165,-0.483061 -0.467448,-0.695408 -0.153177,-1.074081 0.215442,-0.259591 0.304491,-0.613111 0.197888,-0.7856 C 21.067142,12.8076 16.714237,10.409848 13.753191,9.3628864 10.481409,8.2060546 5.5547229,7.3629246 5.0254389,7.8692606 c -0.136263,0.130355 0.5443,0.6377508 1.512363,1.1275458 1.628287,0.823838 3.9648051,2.9298206 5.6265151,5.0713676 0.731851,0.94318 0.653763,1.830591 -0.161083,1.830591 -0.515152,0 -0.654388,-0.125376 -3.2027121,-2.883911 -0.875968,-0.948226 -2.213013,-2.053888 -2.97121,-2.457026 -1.717038,-0.9129576 -1.810523,-0.7458556 -1.608115,2.874445 0.174098,3.113962 1.39794,6.531788 2.931288,8.186221 1.185491,1.279106 3.3512471,2.921175 3.8487181,2.918084 0.193593,-0.0012 0.67101,-0.469202 1.060927,-1.04 0.389916,-0.570797 1.143572,-1.512134 1.674791,-2.09186 0.816222,-0.890753 1.065808,-1.000551 1.611061,-0.708741 0.871901,0.466628 0.811581,1.105469 -0.177869,1.88377 -1.082311,0.851346 -2.740512,3.042915 -3.661333,4.839018 -0.604324,1.178762 -0.78172,2.194687 -0.977843,5.6 -0.261427,4.53919 -0.230548,4.919657 0.692589,8.533404 1.273635,4.985824 4.403717,12.746595 5.140969,12.746595 0.147783,0 0.268696,0.216 0.268696,0.48 0,0.264 0.144,0.48 0.32,0.48 0.176,0 0.32,0.142905 0.32,0.317565 0,0.807651 2.976175,3.755308 6.49409,6.431865 4.305664,3.275907 8.504224,5.02084 15.74591,6.54402 2.495722,0.52494 2.149546,0.51728 5.966096,0.13208 z M 44.793191,65.35973 c -2.215872,-0.5104 -2.40456,-0.597207 -6.082918,-2.798455 -4.926621,-2.948249 -6.026288,-4.468012 -3.389604,-4.684499 1.339485,-0.10998 2.3945,-0.664969 3.809968,-2.00422 l 0.89745,-0.849123 -1.783258,-0.930384 C 33.451946,51.592441 31.39306,48.768914 30.713677,43.764943 30.257421,40.404416 30.526986,38.249158 31.556599,37.025536 l 0.779686,-0.926608 -1.371545,-0.622554 c -2.954851,-1.341222 -4.760605,-3.57047 -5.400087,-6.666538 -0.549996,-2.662823 -0.21864,-3.979914 1.400695,-5.567512 1.879533,-1.842698 3.740685,-2.624966 6.627843,-2.785775 2.048486,-0.114096 2.657779,-0.0172 4.16,0.661553 0.968,0.437376 2.184154,1.243215 2.70256,1.790755 l 0.94256,0.995526 0.866067,-1.391461 c 1.528538,-2.455812 4.479146,-3.373442 8.240381,-2.562732 1.964672,0.423472 2.52879,0.697856 3.428746,1.66772 2.94574,3.174561 4.140342,7.776938 2.73408,10.53344 -0.375444,0.73593 -1.040775,1.572723 -1.478509,1.859536 -1.002496,0.656861 -1.008096,1.022423 -0.01946,1.270554 0.808845,0.203008 2.143901,1.887027 2.725696,3.438156 0.614825,1.639181 0.324707,4.979827 -0.616525,7.099168 -0.15633,0.352 -0.584291,1.348528 -0.95103,2.214509 -0.36674,0.865981 -1.184151,2.205872 -1.816474,2.977539 -0.632323,0.771664 -1.079946,1.472758 -0.99472,1.557984 0.495446,0.495446 5.036595,-2.056182 5.036624,-2.830032 2.6e-5,-0.666538 1.316666,-0.137331 1.751792,0.704109 0.717424,1.387347 0.593971,1.895139 -0.976336,4.015891 -0.781917,1.056 -2.267514,3.149564 -3.301334,4.652368 -1.875229,2.725916 -4.173623,4.833596 -6.644884,6.093516 -1.37328,0.700138 -2.114201,0.725178 -4.589228,0.155082 z m 4.343565,-2.787008 c 1.193952,-0.596288 4.440265,-3.473958 3.918989,-3.473958 -0.104884,0 -1.110112,0.430246 -2.233837,0.956099 -1.95408,0.914425 -3.694602,1.350051 -7.107322,1.778857 -1.189065,0.149405 -1.470237,0.284653 -1.185894,0.570439 1.269779,1.27624 4.238525,1.351968 6.608064,0.168563 z m -1.552275,-3.795286 c 2.538848,-0.881703 6.058835,-3.116548 5.612192,-3.563191 -0.499885,-0.499884 -3.778093,-0.474505 -4.390797,0.03399 -0.291315,0.241769 -0.729994,0.919043 -0.974845,1.505052 -0.552106,1.32138 -0.899587,1.335687 -1.828259,0.07529 -0.642119,-0.871487 -0.872451,-0.971173 -1.921373,-0.831551 -1.190906,0.158518 -5.368208,2.904454 -5.368208,3.528771 0,0.566154 6.718016,-6.4e-4 8.87129,-0.748361 z m 1.36871,-6.543072 c 2.915344,-1.47625 4.273171,-2.791344 5.549885,-5.375213 1.892585,-3.830297 2.289712,-7.113286 1.078169,-8.913065 -1.117161,-1.659571 -2.1532,-2.010765 -6.628054,-2.246765 -4.595434,-0.242361 -8.498669,0.103699 -11.519811,1.021344 -4.459754,1.354608 -5.304579,2.524522 -4.837539,6.699024 0.500912,4.477222 2.198089,6.934013 6.27735,9.086918 1.489533,0.786128 1.831984,0.836646 4.96,0.731702 2.910077,-0.09763 3.595674,-0.232067 5.12,-1.003945 z M 41.97049,49.808082 c -1.024857,-0.421548 -2.544784,-1.996924 -2.9468,-3.054304 -0.388339,-1.021414 -0.121024,-3.372137 0.548736,-4.825491 0.539821,-1.171382 2.129488,-1.988147 2.938602,-1.509839 0.735145,0.434582 2.433485,3.981663 2.896029,6.048534 0.527753,2.358243 0.03282,3.482156 -1.576138,3.579187 -0.614752,0.03707 -1.451942,-0.07007 -1.860429,-0.238087 z m 6.255315,-1.390044 C 46.808932,47.104921 46.062065,44.985497 45.983706,42.0555 l -0.07052,-2.636736 1.523181,0.02032 c 1.284685,0.01712 1.699014,0.190736 2.646182,1.108768 0.617651,0.59865 1.265751,1.618579 1.440218,2.266506 0.365645,1.357904 -0.06669,5.18208 -0.667725,5.906281 C 50.286674,49.405481 49.15012,49.274678 48.2258,48.41805 Z M 35.353191,33.817385 c 0.528,-0.0046 1.176,-0.149312 1.44,-0.321513 0.399616,-0.260663 0.309946,-0.448071 -0.53545,-1.119079 -1.217209,-0.966131 -1.54824,-2.201743 -1.06783,-3.985845 0.251178,-0.932802 0.656854,-1.50493 1.379542,-1.945581 1.285956,-0.784093 1.265824,-0.785475 2.394775,0.164475 1.046726,0.880761 1.35448,0.7785 1.337456,-0.444411 -0.03807,-2.734353 -5.271562,-4.746803 -8.820083,-3.39161 -1.72328,0.658127 -3.477815,2.10683 -4.167981,3.441466 -0.968295,1.872477 0.238672,5.309007 2.356953,6.710818 1.540535,1.019482 2.179165,1.202615 3.602618,1.033088 0.616,-0.07336 1.552,-0.137174 2.08,-0.141808 z m 16.653238,-0.600112 c 1.443322,-0.655612 2.923248,-2.234662 3.226397,-3.4425 0.509527,-2.030114 -0.864544,-5.71347 -2.590771,-6.944872 -1.351165,-0.963848 -5.949622,-1.008353 -7.381491,-0.07144 l -0.947075,0.619697 0.971872,0.251837 c 0.534528,0.13851 1.380275,0.678119 1.879436,1.199131 0.761568,0.794906 0.874669,1.122637 0.703079,2.037288 -0.40024,2.133468 -2.597498,3.383854 -4.68344,2.665188 -0.840704,-0.289646 -1.271245,-0.322308 -1.271245,-0.09644 0,0.57047 1.27951,3.024831 1.803706,3.459875 1.181155,0.980272 6.394704,1.182937 8.289532,0.322236 z M 21.121421,22.634144 c -0.484666,-0.905606 -0.06201,-1.57328 1.975473,-3.120693 2.26119,-1.71731 4.145123,-2.736528 6.656297,-3.60109 1.144,-0.393863 2.368,-0.830972 2.72,-0.971353 0.352,-0.140381 1.476112,-0.439259 2.498029,-0.664174 2.257197,-0.49679 3.530195,-0.168299 3.689968,0.952182 0.132096,0.926376 -0.397264,1.297225 -1.867997,1.308647 -3.055242,0.02373 -9.93528,2.840139 -12.594243,5.155576 -1.758554,1.531355 -2.620493,1.794879 -3.077527,0.940905 z m 37.6916,-1.139648 c -0.389299,-0.854419 -3.407065,-3.035731 -4.199824,-3.035731 -0.259344,0 -0.545075,-0.19165 -0.634963,-0.42589 -0.225526,-0.587713 -3.636272,-1.785005 -6.406102,-2.248768 -2.249363,-0.376618 -2.298941,-0.405411 -2.298941,-1.33513 0,-0.942914 0.0135,-0.949928 1.76,-0.91329 0.968,0.02031 2.751517,0.345651 3.963373,0.722986 2.132941,0.664133 7.748048,3.754012 8.526454,4.691934 0.21048,0.253612 0.474375,0.40473 0.586432,0.335819 0.370413,-0.227788 0.377533,2.130146 0.0078,2.575676 -0.530742,0.639509 -0.891683,0.537773 -1.304201,-0.367606 z"
     id="path12"
     inkscape:connector-curvature="0" />
</svg>
