<svg xmlns="http://www.w3.org/2000/svg" version="1.1" id="svg2" width="76.208" height="70.536"><path style="fill:#feb4b4;fill-opacity:1;stroke-width:.27084744;stroke-miterlimit:4;stroke-dasharray:none" d="M38.486 69.052c-7.303-1.665-11.36-4.01-16.106-7.841-2.093-1.69-4.747-4.357-5.137-5.162-.18-.373-.432-.718-.56-.767-.127-.049-.232-.232-.232-.407 0-.175-.151-.4-.337-.498-.729-.39-3.279-6.549-4.632-11.173-1.302-4.451-1.428-5.88-1.102-10.73.207-3.08.381-4.429 1.114-5.74.775-1.385 2.422-3.276 3.486-4.279.49-.461.637-.799.637-.921 0-.461-.025-.29-.503-.491-.772-.325-.77-.367-2.987 2.488-.357.46-.915 1.428-1.067 1.428-.426 0-2.07-1.075-3.392-2.331-.981-.932-1.572-1.617-2.153-2.813-1.035-2.127-1.532-4.491-1.643-7.25-.105-2.602.565-2.869 1.738-2.344.979.438 2.217 1.685 4.282 3.818 1.406 1.452 1.927 1.89 2.238 1.888.525-.004.057-.137.057-.675 0-1.06-2.922-4.349-5.501-5.934-.876-.538-2.24-1.617-2.24-1.708 0-.247 3.309.254 5.287.663 3.501.724 7.758 2.45 10.515 4.261 1.614 1.061 1.672 1.143 1.326 1.868-.31.648-.23.897.45 1.404.389.29.418.008 1.421-.334.564-.192 1.637-.706 2.557-1.142 3.6-1.703 7.397-2.772 11.85-3.235 2.442-.253 8.212-.066 12.066.24 2.655.21 3.334.26 3.64.12.785-.358-.18-.903-1.421-1.43-.416-.177-.757-.363-.757-.414 0-.226 2.156-2.303 3.247-3.136 2.58-1.967 4.078-2.55 7.775-3.672 3.303-1.001 5.015-.935 6.28-.583.71.197 3.038 2.031 3.65 2.875.928 1.282 2.114 5.598 1.678 6.034-.196.195-.81-.163-2-1.603-1.463-1.773-5.824-3.356-6.009-2.075-.064.444.334.787 1.804 1.558 2.29 1.2 2.602 1.666 2.316 3.453-.317 1.99-1.545 5.361-2.283 6.027-.331.3-.363.3-.861.032-.285-.153-1.196-.82-2.024-1.481-1.745-1.395-2.223-2.126-2.652-1.99-.451.143-.388.69.185 1.593.79 1.247 4.358 4.77 6.104 6.028 2.164 1.56 2.816 2.575 3.595 5.603.763 2.96.845 4.068.753 10.171-.099 6.513-.162 6.992-1.43 10.783-1.544 4.619-3.54 8.489-6.293 11.611-.464.526-.92 1.122-1.015 1.326-.195.419-2.176 1.959-3.48 2.705-2.265 1.296-5.547 2.52-9.695 3.287-6.575 1.215-8.777 1.47-12.285.67zm15.717-34.185.805-1.39c1.457-1.397 2.099-2.224 2.099-4.048 0-3.387-2.387-7.672-4.827-8.743-1.17-.514-3.096-1.145-4.629-1.054-2.456.145-4.038 1.028-5.314 2.965l-1.127 1.648-1.247-.79c-.6-.575-1.086-1.41-2.08-1.903-1.5-.746-1.178-.722-3.018-.773-2.273-.063-3.73-.142-5.357.658-1.342.66-3.118 2.3-3.607 3.33-.41.862-.482 2.58-.171 4.056.62 2.941 2.384 5.195 5.113 6.53.788.385 1.46.721 1.493.746 10.068-3.24 21.722-.211 21.867-1.232z" id="path848"/><path style="fill:#e26d6d;fill-opacity:1;stroke-width:.1463685;stroke-miterlimit:4;stroke-dasharray:none" d="M40.24 54.347c-.741-.116-1.018-.218-2.028-.744-4.248-2.214-6.137-4.804-6.757-9.263-.437-3.143-.152-4.735 1.044-5.828 1.101-1.006 4.257-2.158 7.203-2.63 3.388-.542 8.186-.608 12.08-.166 2.364.268 3.44.8 4.317 2.138 1.302 1.982.94 5.328-1.013 9.394-1.261 2.624-2.708 4.17-5.185 5.541-1.89 1.047-2.748 1.328-4.48 1.47-1.575.127-4.599.18-5.182.088z" id="path854"/><ellipse style="fill:#de3632;fill-opacity:1;stroke-width:1.9602282;stroke-miterlimit:4;stroke-dasharray:none" id="path823" ry="4.589" rx="8.564" cy="66.413" cx="36.943" transform="matrix(.98396 -.17839 .16182 .98682 0 0)"/><path style="fill:#000;stroke-width:.31999999" d="M39.993 70.413c-.44-.09-1.88-.45-3.2-.8l-4.16-1.103c-3.44-.909-9.108-4.12-12.657-7.171-2.975-2.558-5.519-6.066-7.485-10.323-1.52-3.29-3.454-9.666-3.818-12.587-.39-3.129-.117-8.607.529-10.639l.543-1.708-.956-.689c-4.554-3.279-6.376-7.01-6.389-13.087l-.007-3.432-1.042-.561C.36 7.778-.277 6.783.12 6.386c.23-.23 8.378-.119 9.473.129 1.153.26 4.848 1.384 5.6 1.702 3.3 1.396 4.688 2.138 6.585 3.518 1.213.882 2.347 1.604 2.52 1.604.174 0 .788-.262 1.365-.583.578-.32 2.274-.96 3.77-1.421 4.92-1.517 8.029-1.903 15.067-1.872l5.05.022.679-1.1c.882-1.426 3.299-3.57 5.539-4.91C58.595 1.78 66.356-.3 68.592.034c1.764.265 4.743 2.72 6.051 4.985 1.568 2.716 2.03 6.06 1.056 7.637-.122.197-.886.32-1.722.278l-1.503-.076-.661 1.92c-.364 1.056-1.05 2.61-1.523 3.455-.994 1.773-.891 2.957.304 3.502.418.19.76.482.76.648 0 .167.414.827.922 1.469 2.368 2.991 3.604 12.659 2.57 20.093-.625 4.496-2.996 10.712-5.613 14.714-4.593 7.024-7.7 9.023-16.92 10.885-3.701.747-10.552 1.23-12.32.868zm5.486-1.729c3.781-.381 10.285-1.715 11.474-2.354.44-.236 1.376-.613 2.08-.838 1.238-.395 4.96-2.993 4.96-3.461 0-.127.475-.73 1.055-1.342 1.33-1.4 3.42-4.511 4.293-6.39 1.42-3.058 1.694-3.77 2.53-6.56.77-2.576.875-3.523.999-8.96.12-5.28.05-6.496-.527-9.24-.83-3.943-1.653-5.45-3.71-6.79-.88-.574-1.888-1.34-2.24-1.702L63.73 18.3c-1.906-1.964-2.352-2.97-1.452-3.27.2-.067 1.305.677 2.456 1.653 1.15.976 2.316 1.775 2.59 1.775.898 0 2.75-4.644 2.75-6.9 0-1.172-.413-1.586-2.687-2.7-.899-.44-1.634-1.016-1.634-1.28 0-.793 1.891-.761 3.577.06 2.295 1.118 2.453 1.233 3.143 2.282.352.535.843 1.038 1.09 1.118 1.032.335-.296-4.818-1.634-6.34-.232-.264-1.069-.984-1.859-1.6-1.238-.965-1.657-1.113-3.023-1.07-.873.028-2.097.2-2.72.381-3.97 1.157-4.796 1.43-6.057 2.01-2.417 1.108-6.377 4.267-6.425 5.124-.007.113.344.295.779.404.435.109.945.487 1.134.84.471.88-.154 1.076-2.654.832-7.859-.767-13.55-.57-18.79.647-2.09.486-5.286 1.614-5.966 2.107-.2.146-1.235.606-2.299 1.023-1.89.74-1.947.744-2.48.156-.436-.483-.467-.696-.152-1.074.215-.26.304-.613.197-.786-.547-.885-4.9-3.283-7.86-4.33-3.273-1.157-8.2-2-8.729-1.494-.136.13.545.638 1.513 1.128 1.628.824 3.965 2.93 5.626 5.071.732.943.654 1.83-.16 1.83-.516 0-.655-.125-3.203-2.883-.876-.948-2.213-2.054-2.972-2.457-1.717-.913-1.81-.746-1.608 2.874.174 3.114 1.398 6.532 2.931 8.186 1.186 1.28 3.352 2.922 3.85 2.919.193-.002.67-.47 1.06-1.04a22.86 22.86 0 0 1 1.675-2.092c.816-.891 1.066-1 1.611-.709.872.467.812 1.105-.178 1.884-1.082.851-2.74 3.043-3.661 4.839-.605 1.179-.782 2.194-.978 5.6-.261 4.539-.23 4.92.693 8.533 1.273 4.986 4.403 12.747 5.14 12.747.148 0 .27.216.27.48s.143.48.32.48a.32.32 0 0 1 .32.317c0 .808 2.975 3.756 6.493 6.432 4.306 3.276 8.505 5.021 15.746 6.544 2.496.525 2.15.517 5.966.132zm-.686-3.324c-2.216-.51-2.404-.597-6.083-2.799-4.926-2.948-6.026-4.468-3.39-4.684 1.34-.11 2.395-.665 3.81-2.004l.898-.85-1.783-.93c-4.793-2.5-6.852-5.324-7.531-10.328-.457-3.36-.187-5.516.843-6.74l.78-.926-1.372-.623c-2.955-1.34-4.76-3.57-5.4-6.666-.55-2.663-.219-3.98 1.4-5.568 1.88-1.842 3.741-2.625 6.628-2.785 2.049-.115 2.658-.018 4.16.661.968.437 2.184 1.243 2.703 1.79l.942.996.866-1.391c1.529-2.456 4.48-3.374 8.24-2.563 1.965.424 2.53.698 3.43 1.668 2.945 3.174 4.14 7.777 2.734 10.533-.376.736-1.041 1.573-1.479 1.86-1.002.657-1.008 1.022-.02 1.27.81.203 2.145 1.887 2.726 3.439.615 1.639.325 4.98-.616 7.099-.157.352-.585 1.348-.951 2.214-.367.866-1.184 2.206-1.817 2.978-.632.771-1.08 1.473-.994 1.558.495.495 5.036-2.056 5.036-2.83 0-.667 1.317-.138 1.752.704.717 1.387.594 1.895-.976 4.016a203.256 203.256 0 0 0-3.302 4.652c-1.875 2.726-4.173 4.834-6.645 6.094-1.373.7-2.114.725-4.589.155zm4.344-2.787c1.194-.597 4.44-3.474 3.919-3.474-.105 0-1.11.43-2.234.956-1.954.914-3.695 1.35-7.107 1.779-1.19.15-1.47.284-1.186.57 1.27 1.276 4.238 1.352 6.608.169zm-1.553-3.796c2.54-.881 6.06-3.116 5.613-3.563-.5-.5-3.778-.474-4.391.034-.291.242-.73.92-.975 1.505-.552 1.322-.9 1.336-1.828.076-.642-.872-.873-.972-1.922-.832-1.19.159-5.368 2.904-5.368 3.529 0 .566 6.718 0 8.871-.749zm1.37-6.543c2.915-1.476 4.272-2.791 5.55-5.375 1.892-3.83 2.289-7.113 1.077-8.913-1.117-1.66-2.153-2.01-6.628-2.247-4.595-.242-8.498.104-11.52 1.022-4.46 1.354-5.304 2.524-4.837 6.699.5 4.477 2.198 6.934 6.277 9.087 1.49.786 1.832.836 4.96.731 2.91-.097 3.596-.232 5.12-1.004zm-6.984-2.426c-1.024-.421-2.544-1.997-2.946-3.054-.389-1.022-.121-3.372.548-4.826.54-1.171 2.13-1.988 2.939-1.51.735.435 2.434 3.982 2.896 6.049.528 2.358.033 3.482-1.576 3.58-.615.036-1.452-.07-1.86-.239zm6.256-1.39c-1.417-1.313-2.164-3.433-2.242-6.362l-.07-2.637 1.522.02c1.285.017 1.7.19 2.647 1.109.617.599 1.265 1.618 1.44 2.266.365 1.358-.067 5.182-.668 5.907-.568.684-1.705.554-2.63-.303Zm-12.873-14.6c.528-.005 1.176-.15 1.44-.322.4-.26.31-.448-.535-1.12-1.217-.965-1.548-2.2-1.068-3.985.251-.933.657-1.505 1.38-1.946 1.285-.784 1.265-.785 2.394.165 1.047.88 1.355.778 1.338-.445-.038-2.734-5.272-4.746-8.82-3.391-1.724.658-3.478 2.107-4.168 3.441-.969 1.873.238 5.31 2.357 6.711 1.54 1.02 2.179 1.203 3.602 1.033a23.137 23.137 0 0 1 2.08-.142zm16.653-.6c1.444-.656 2.924-2.235 3.227-3.443.51-2.03-.865-5.714-2.59-6.945-1.352-.964-5.95-1.008-7.382-.072l-.948.62.972.252c.535.139 1.38.678 1.88 1.2.761.794.874 1.122.703 2.036-.4 2.134-2.598 3.384-4.684 2.666-.84-.29-1.27-.323-1.27-.097 0 .57 1.279 3.025 1.803 3.46 1.181.98 6.395 1.183 8.29.322zM21.121 22.633c-.484-.905-.062-1.573 1.976-3.12 2.261-1.718 4.145-2.737 6.656-3.602a95.91 95.91 0 0 0 2.72-.971c.352-.14 1.476-.44 2.498-.664 2.257-.497 3.53-.168 3.69.952.132.926-.397 1.297-1.868 1.309-3.055.023-9.935 2.84-12.594 5.155-1.759 1.532-2.62 1.795-3.078.941zm37.692-1.14c-.39-.854-3.407-3.035-4.2-3.035-.26 0-.545-.192-.635-.426-.225-.588-3.636-1.785-6.406-2.249-2.25-.377-2.299-.405-2.299-1.335 0-.943.014-.95 1.76-.913.968.02 2.752.345 3.964.723 2.133.664 7.748 3.754 8.526 4.692.21.253.474.404.586.335.37-.227.378 2.13.008 2.576-.53.64-.891.538-1.304-.368z" id="path12"/></svg>